<svg width="1307" height="605" viewBox="0 0 1307 605" fill="none" xmlns="http://www.w3.org/2000/svg">
<path fill-rule="evenodd" clip-rule="evenodd" d="M748.461 604.438V0.685913H1024.59C1079.67 0.685913 1127.09 9.57967 1166.81 27.4219C1207.09 45.2638 1238.22 71.1882 1260.13 105.204C1282.05 138.664 1292.98 178.432 1292.98 224.448C1292.98 269.897 1282.05 309.379 1260.13 342.836L1260.12 342.846C1239.91 373.165 1211.86 397.082 1176.02 414.61L1306.29 604.438H1120.82L1011.88 444.777H921.3V604.438H748.461ZM919.862 443.339H1012.64L1121.58 603H1303.56L1173.89 414.046C1174.33 413.836 1174.76 413.624 1175.2 413.412C1210.92 395.975 1238.83 372.187 1258.93 342.048C1280.67 308.857 1291.55 269.657 1291.55 224.448C1291.55 178.667 1280.67 139.181 1258.93 105.99C1237.18 72.2262 1206.28 46.4744 1166.22 28.7342C1126.73 10.994 1079.52 2.12396 1024.59 2.12396H749.899V603H919.862V443.339ZM1014.28 312.004C1049.77 312.004 1076.09 304.279 1093.26 288.828C1111 273.377 1119.87 251.917 1119.87 224.448C1119.87 196.407 1111 174.661 1093.26 159.21C1076.09 143.759 1049.77 136.033 1014.28 136.033H919.862V312.004H1014.28ZM921.3 310.566H1014.28C1049.59 310.566 1075.5 302.873 1092.3 287.759L1092.3 287.751L1092.31 287.743C1109.69 272.612 1118.43 251.578 1118.43 224.448C1118.43 196.736 1109.68 175.42 1092.31 160.295L1092.3 160.287L1092.3 160.279C1075.5 145.165 1049.59 137.472 1014.28 137.472H921.3V310.566Z" fill="url(#paint0_linear_2021_21)" fill-opacity="0.35"/>
<path fill-rule="evenodd" clip-rule="evenodd" d="M0.775757 604.438L267.289 0.685913H436.549L703.925 604.438H523.914L477.062 487.696H224.202L177.351 604.438H0.775757ZM223.23 486.258H478.035L524.886 603H701.715L435.613 2.12396H268.226L2.98248 603H176.378L223.23 486.258ZM350.632 168.805L273.526 360.933H427.738L350.632 168.805ZM425.612 359.495L350.632 172.666L275.653 359.495H425.612Z" fill="url(#paint1_linear_2021_21)" fill-opacity="0.35"/>
<defs>
<linearGradient id="paint0_linear_2021_21" x1="3163.14" y1="-180.82" x2="3089.34" y2="1090.03" gradientUnits="userSpaceOnUse">
<stop stop-color="white"/>
<stop offset="1" stop-color="white" stop-opacity="0"/>
</linearGradient>
<linearGradient id="paint1_linear_2021_21" x1="3163.14" y1="-180.82" x2="3089.34" y2="1090.03" gradientUnits="userSpaceOnUse">
<stop stop-color="white"/>
<stop offset="1" stop-color="white" stop-opacity="0"/>
</linearGradient>
</defs>
</svg>
