<svg width="71" height="71" viewBox="0 0 71 71" fill="none" xmlns="http://www.w3.org/2000/svg">
<path d="M29.9431 20.878H45.0901C45.9041 20.878 46.5531 20.229 46.5531 19.415V12.419C46.5531 11.616 45.9041 10.967 45.0901 10.967H29.9431C29.1401 10.967 28.4911 11.616 28.4911 12.419V19.415C28.4911 20.229 29.1401 20.878 29.9431 20.878ZM14.135 35.376H22.363C23.166 35.376 23.826 34.716 23.826 33.913V25.971C23.826 25.157 23.166 24.508 22.363 24.508H14.135C13.332 24.508 12.683 25.157 12.683 25.971V33.913C12.683 34.716 13.332 35.376 14.135 35.376ZM29.216 27.852H46.552C47.157 27.852 47.652 27.368 47.652 26.752C47.652 26.147 47.157 25.652 46.552 25.652H29.216C28.611 25.652 28.116 26.147 28.116 26.752C28.116 27.368 28.611 27.852 29.216 27.852ZM29.216 34.221H46.552C47.157 34.221 47.652 33.737 47.652 33.121C47.652 32.516 47.157 32.021 46.552 32.021H29.216C28.611 32.021 28.116 32.516 28.116 33.121C28.116 33.737 28.611 34.221 29.216 34.221ZM48.0271 41.624C48.0271 41.019 47.5321 40.524 46.9271 40.524H12.6841C12.0681 40.524 11.5841 41.019 11.5841 41.624C11.5841 42.229 12.0681 42.724 12.6841 42.724H46.9271C47.5321 42.724 48.0271 42.229 48.0271 41.624ZM31.5381 47.861H12.6841C12.0681 47.861 11.5841 48.356 11.5841 48.961C11.5841 49.577 12.0681 50.061 12.6841 50.061H31.5381C32.1431 50.061 32.6381 49.577 32.6381 48.961C32.6381 48.356 32.1431 47.861 31.5381 47.861ZM31.416 55.209H12.683C12.067 55.209 11.583 55.693 11.583 56.309C11.583 56.914 12.067 57.409 12.683 57.409H31.416C32.021 57.409 32.516 56.914 32.516 56.309C32.516 55.693 32.021 55.209 31.416 55.209ZM21.769 62.546H12.683C12.067 62.546 11.583 63.041 11.583 63.646C11.583 64.251 12.067 64.746 12.683 64.746H21.769C22.385 64.746 22.869 64.251 22.869 63.646C22.869 63.041 22.385 62.546 21.769 62.546Z" fill="#CCFF00"/>
<path d="M66.5038 47.3352L66.3575 41.2962C66.3489 40.9109 66.2643 40.5312 66.1084 40.1787C65.9525 39.8263 65.7285 39.5082 65.4492 39.2427C65.1699 38.9772 64.8408 38.7695 64.4809 38.6317C64.1211 38.4938 63.7375 38.4285 63.3523 38.4395C61.9883 38.4703 60.8993 39.4075 60.5913 40.6648C60.5858 40.6681 60.5825 40.6736 60.577 40.678C59.1103 42.1995 57.3955 43.4605 55.506 44.407V31.4457H62.6582C63.9016 31.4442 65.0937 30.9496 65.9728 30.0702C66.8519 29.1909 67.3463 27.9987 67.3475 26.7553V11.9603C67.3475 7.9288 63.9012 4.906 60.3581 4.906H24.5201V4.741C24.5201 2.123 22.3861 0 19.7791 0H4.741C3.48361 0 2.27772 0.499497 1.38861 1.38861C0.499497 2.27772 0 3.48361 0 4.741V13.255C0 15.73 1.903 17.765 4.345 17.952V65.318C4.34791 66.7525 4.91903 68.1273 5.93335 69.1417C6.94767 70.156 8.32254 70.7271 9.757 70.73C9.8692 70.7311 49.9807 70.7344 50.094 70.73C51.5285 70.7271 52.9033 70.156 53.9176 69.1417C54.932 68.1273 55.5031 66.7525 55.506 65.318V60.951C57.519 61.776 59.367 62.964 61.039 64.482V64.493L61.0412 64.4952C61.0628 65.2703 61.3912 66.005 61.9543 66.538C62.5174 67.071 63.2691 67.3586 64.0442 67.3376C64.8216 67.3203 65.5604 66.9951 66.0983 66.4335C66.6362 65.8719 66.9292 65.1198 66.913 64.3423L66.7667 58.289H66.77C69.102 57.497 70.73 55.253 70.675 52.723C70.62 50.1952 68.8754 48.0205 66.5038 47.3352ZM4.3461 15.7421C3.74971 15.6542 3.20485 15.3546 2.81103 14.8982C2.41722 14.4418 2.20073 13.8589 2.2011 13.2561V4.7421C2.2011 3.3451 3.3341 2.2011 4.7421 2.2011H19.7791C21.1761 2.2011 22.3201 3.3451 22.3201 4.7421V13.2451C22.3201 14.6091 21.2421 15.7091 19.9001 15.7751L19.8231 15.7641C19.6626 15.7218 19.4944 15.7177 19.3321 15.752C19.1697 15.7864 19.0177 15.8584 18.8881 15.9621C18.6131 16.1711 18.4591 16.4901 18.4591 16.8311V19.7901L14.3451 16.0611C14.1471 15.8851 13.8831 15.7751 13.6081 15.7751C3.9138 15.7751 4.6024 15.7883 4.3461 15.7421ZM45.5631 68.5311H42.2081C42.1767 68.4764 42.1544 68.417 42.1421 68.3551L40.6901 59.6431L44.2321 59.5551L45.6731 68.1131C45.6868 68.1866 45.684 68.2622 45.665 68.3344C45.646 68.4067 45.6112 68.4739 45.5631 68.5311ZM39.5351 46.6521C37.2801 46.6961 35.4871 48.5771 35.5311 50.8541L35.6411 55.6391C35.6851 57.3991 36.8291 58.8731 38.4131 59.4121L39.9421 68.5311H9.7581C7.9871 68.5311 6.5461 67.0901 6.5461 65.3191V17.9751H13.1901L17.0841 21.5171C17.4691 21.8911 17.9861 22.1001 18.5361 22.1001C18.8001 22.1001 19.0751 22.0561 19.4271 21.9131C20.1861 21.5611 20.6591 20.8131 20.6591 19.9881V17.8981C22.8591 17.4801 24.5201 15.5551 24.5201 13.2451V7.1071H55.2431C53.9959 8.41366 53.3022 10.1518 53.3071 11.9581V45.3321C50.1336 46.4277 47.6421 46.3914 47.2681 46.4651C47.2571 46.4651 47.2461 46.4651 47.2241 46.4761L39.5351 46.6521ZM53.3071 65.3191C53.3071 67.0901 51.8661 68.5311 50.0951 68.5311H47.8401C47.8841 68.2671 47.8841 68.0141 47.8401 67.7501L46.4541 59.4781C46.9326 59.5001 49.8201 59.2207 53.3071 60.1931V65.3191ZM48.8301 57.3001L48.6211 48.5551C53.4314 48.103 57.3639 46.3958 60.5231 43.7371L60.9521 61.5461C57.4288 58.8753 53.2818 57.4893 48.8301 57.3001ZM66.7271 55.9031L66.5841 49.7321C67.6951 50.3261 68.4431 51.4701 68.4761 52.7791C68.5091 54.0771 67.8051 55.2651 66.7271 55.9031Z" fill="#CCFF00"/>
<path d="M12.078 13.035L15.477 10.934C15.7796 10.748 16.0294 10.4875 16.2027 10.1775C16.376 9.86746 16.467 9.51819 16.467 9.16301C16.467 8.80782 16.376 8.45856 16.2027 8.14853C16.0294 7.8385 15.7796 7.57805 15.477 7.39201L12.078 5.29101C10.703 4.45171 8.89899 5.39881 8.89899 7.06201V11.253C8.89899 12.8458 10.6469 13.893 12.078 13.035Z" fill="#CCFF00"/>
</svg>
