<svg width="67" height="68" viewBox="0 0 67 68" fill="none" xmlns="http://www.w3.org/2000/svg">
<path d="M59.0143 56.4857C62.9786 56.4857 66.2036 53.2714 66.2036 49.3071V6.73929C66.2036 3.02143 63.1821 0 59.4643 0H6.73929C3.02143 0 0 3.02143 0 6.73929V49.3071C0 53.2714 3.225 56.4857 7.18929 56.4857H23.6304V60.6075H21.7018C20.8549 60.6061 20.0421 60.9411 19.4421 61.5388C18.8422 62.1365 18.5042 62.9481 18.5025 63.795V66.1971C18.5025 66.9161 19.0896 67.5043 19.8086 67.5043H46.4014C47.1204 67.5043 47.7086 66.9161 47.7086 66.1971V63.795C47.7077 63.3756 47.6243 62.9604 47.463 62.5732C47.3017 62.186 47.0657 61.8344 46.7686 61.5384C46.4714 61.2424 46.1188 61.0079 45.731 60.8482C45.3431 60.6884 44.9277 60.6067 44.5082 60.6075H42.5721V56.4857H59.0143ZM33.1071 53.0036C32.0893 53.0036 31.2643 52.1893 31.2643 51.1714C31.2643 50.1429 32.0893 49.3179 33.1071 49.3179C34.1143 49.3179 34.9393 50.1429 34.9393 51.1714C34.9393 52.1893 34.1143 53.0036 33.1071 53.0036ZM2.14286 45.8679V6.73929C2.14286 4.21071 4.21072 2.14286 6.73929 2.14286H59.4643C61.9929 2.14286 64.0607 4.21071 64.0607 6.73929V45.8679H2.14286Z" fill="#CCFF00"/>
<path d="M52.3179 10.6072C50.9786 10.6072 49.8536 11.4429 49.4143 12.6322H36.2786C35.8393 11.4429 34.7036 10.6072 33.375 10.6072C32.0464 10.6072 30.9214 11.4429 30.4821 12.6322H16.7893C16.5394 11.9501 16.0571 11.378 15.4272 11.0162C14.7973 10.6545 14.06 10.5263 13.345 10.6542C12.6299 10.7821 11.9828 11.158 11.5174 11.7157C11.052 12.2733 10.7979 12.9772 10.8 13.7036C10.8 14.522 11.1251 15.3069 11.7038 15.8855C12.2825 16.4642 13.0673 16.7893 13.8857 16.7893C15.225 16.7893 16.35 15.9536 16.7893 14.775H24.4607C18.8571 17.7429 14.9571 23.5179 14.6357 30.225H13.95C13.3393 30.225 12.8357 30.7179 12.8357 31.3393V34.8108C12.8357 35.4215 13.3393 35.925 13.95 35.925H17.4321C18.0429 35.925 18.5464 35.4215 18.5464 34.8108V31.3393C18.5464 30.7179 18.0429 30.225 17.4321 30.225H16.7786C17.1964 22.4786 23.0464 16.1465 30.5571 14.9786C30.8893 15.6858 31.4571 16.2429 32.175 16.5536C32.1643 16.575 32.1536 16.5858 32.1429 16.6072L24.2464 32.4C24.0643 32.775 24.1071 33.2358 24.3857 33.5572C24.6536 33.8893 25.0929 34.0286 25.5 33.9108L33.1071 31.7465L40.7036 33.9108C41.2061 34.0233 41.5768 33.8625 41.8179 33.5572C42.0964 33.2358 42.15 32.775 41.9571 32.4L34.1036 16.6929C35.0036 16.4893 35.7536 15.8786 36.15 15.0643C43.425 16.4465 49.0071 22.65 49.4143 30.225H48.7714C48.1607 30.225 47.6571 30.7179 47.6571 31.3393V34.8108C47.6571 35.4215 48.1607 35.925 48.7714 35.925H52.2536C52.8643 35.925 53.3679 35.4215 53.3679 34.8108V31.3393C53.3679 30.7179 52.8643 30.225 52.2536 30.225H51.5571C51.2357 23.5179 47.3357 17.7429 41.7321 14.775H49.4143C49.8536 15.9536 50.9786 16.7893 52.3179 16.7893C52.7231 16.7893 53.1243 16.7095 53.4987 16.5544C53.8731 16.3994 54.2133 16.1721 54.4998 15.8855C54.7863 15.599 55.0136 15.2588 55.1687 14.8845C55.3238 14.5101 55.4036 14.1088 55.4036 13.7036C55.4036 11.9893 54.0214 10.6072 52.3179 10.6072Z" fill="#CCFF00"/>
</svg>
